# xmcd
#
# Track frame offsets: 
#        150
#        11721
#        30444
#        44178
#        57178
#        72439
#        85681
#        101951
#        117070
#        132841
#        148629
#        168588
#        184456
#        198366
#        216598
#        232572
#        249516
#        271322
#
# Disc length: 3951 seconds
#
# Revision: 3
# Processed by: cddbd v1.5.2PL0 Copyright (c) Steve Scherf et al.
# Submitted via: ExactAudioCopy v0.99pb5
#
DISCID=090f6d12
DTITLE=Various Artist - Modern Country Music - CD 3
DYEAR=2013
DGENRE=Country
TTITLE0=Chris Ledoux and Garth Brooks - Watcha gonna do with a cowboy
TTITLE1=George Strait - Give it all we got tonight
TTITLE2=Jamey Johnson with Alison Krauss - Make the world go away
TTITLE3=Easton Corbin - A little more country than that
TTITLE4=Toby Keith with Willie Nelson - Beer for my horses
TTITLE5=Vince Gill - Smilin' song
TTITLE6=Reba McEntire - Consider me gone
TTITLE7=Josh Turner - Time is love
TTITLE8=Trace Adkins - Just fishin'
TTITLE9=Billy Ray Cyrus - Wher'm I gonna live?
TTITLE10=Shooter Jennings feat. George Jones - 4th of July (He stopped
TTITLE10=loving her today)
TTITLE11=Terri Clark - Girls lie too
TTITLE12=Joe Nichols - Tequila makes her clothes fall off
TTITLE13=Hayes Carll - She left me for Jesus
TTITLE14=Randy Travis - A man ain't made of stone
TTITLE15=Jamey Johnson - Cover your eyes
TTITLE16=Vince Gill feat, Sheryl Crow - What you give away
TTITLE17=Toby Keith - I love this bar
EXTD=
EXTT0=
EXTT1=
EXTT2=
EXTT3=
EXTT4=
EXTT5=
EXTT6=
EXTT7=
EXTT8=
EXTT9=
EXTT10=
EXTT11=
EXTT12=
EXTT13=
EXTT14=
EXTT15=
EXTT16=
EXTT17=
PLAYORDER=
